<?xml version="1.0" encoding="UTF-8" standalone="no"?>
<!-- Created with Inkscape (http://www.inkscape.org/) -->

<svg
   xmlns:dc="http://purl.org/dc/elements/1.1/"
   xmlns:cc="http://creativecommons.org/ns#"
   xmlns:rdf="http://www.w3.org/1999/02/22-rdf-syntax-ns#"
   xmlns:svg="http://www.w3.org/2000/svg"
   xmlns="http://www.w3.org/2000/svg"
   xmlns:sodipodi="http://sodipodi.sourceforge.net/DTD/sodipodi-0.dtd"
   xmlns:inkscape="http://www.inkscape.org/namespaces/inkscape"
   version="1.1"
   id="svg61"
   viewBox="0 0 941.8667 681.59998"
   sodipodi:docname="logo.svg"
   inkscape:version="0.92.3 (2405546, 2018-03-11)">
  <metadata
     id="metadata67">
    <rdf:RDF>
      <cc:Work
         rdf:about="">
        <dc:format>image/svg+xml</dc:format>
        <dc:type
           rdf:resource="http://purl.org/dc/dcmitype/StillImage" />
        <dc:title></dc:title>
      </cc:Work>
    </rdf:RDF>
  </metadata>
  <defs
     id="defs65" />
  <sodipodi:namedview
     pagecolor="#ffffff"
     bordercolor="#666666"
     borderopacity="1"
     objecttolerance="10"
     gridtolerance="10"
     guidetolerance="10"
     inkscape:pageopacity="0"
     inkscape:pageshadow="2"
     inkscape:window-width="1600"
     inkscape:window-height="851"
     id="namedview63"
     showgrid="false"
     inkscape:zoom="0.98004698"
     inkscape:cx="470.93335"
     inkscape:cy="340.79999"
     inkscape:window-x="0"
     inkscape:window-y="25"
     inkscape:window-maximized="1"
     inkscape:current-layer="svg61" />
  <path
     style="stroke-width:1.06666672"
     d="m 467.08505,663.67695 c -12.89431,-5.26837 -21.86667,-18.61795 -21.86667,-32.53445 0,-19.12206 16.07794,-35.2 35.2,-35.2 19.12206,0 35.2,16.07794 35.2,35.2 0,9.59058 -3.37601,17.48157 -10.54722,24.65278 -10.4894,10.4894 -24.49253,13.39488 -37.98611,7.88167 z M 595.3895,646.55514 c -30.36919,-4.72876 -56.9489,-20.65773 -73.62579,-44.12322 -3.56547,-5.01685 -8.80677,-11.91425 -11.64733,-15.32753 -2.84057,-3.41329 -5.16467,-6.71385 -5.16467,-7.33459 0,-0.62074 4.83217,3.36418 10.73815,8.85538 13.12264,12.20101 20.18022,17.00046 31.31166,21.29319 16.82598,6.48878 23.21346,7.71613 40.61686,7.80446 18.46709,0.0938 24.88595,-1.21681 38.4,-7.84013 8.11991,-3.97959 20.64668,-13.9342 22.94962,-18.23729 2.56437,-4.79157 -2.2418,-7.89569 -15.82572,-10.22121 -5.09148,-0.87165 -12.68137,-2.53102 -16.86642,-3.68749 -9.2312,-2.55089 -31.77545,-11.3195 -41.07466,-15.97602 -10.21698,-5.1161 -28.69633,-16.45415 -32.91615,-20.19581 l -3.73333,-3.31028 3.73333,0.69997 c 4.98936,0.93547 15.28055,5.13232 18.92648,7.71842 1.6171,1.14702 9.66019,4.60114 17.87352,7.67581 53.64788,20.08315 93.2555,28.25955 118.92457,24.55015 4.53386,-0.65518 7.29222,-0.63299 7.98949,0.0643 2.5254,2.5254 -15.41841,29.68542 -26.815,40.58756 -14.84306,14.19912 -33.25487,23.15309 -55.70545,27.09052 -10.61609,1.86187 -15.67816,1.84634 -28.08916,-0.0862 z m -261.63779,-1.95453 c -14.336,-3.07287 -26.88568,-7.83287 -35.88741,-13.61184 -9.9612,-6.39493 -26.96483,-24.08838 -35.482,-36.92149 -3.9941,-6.01804 -7.68992,-11.20637 -8.21295,-11.52962 -0.52303,-0.32325 -0.95097,-1.46736 -0.95097,-2.54247 0,-2.70534 3.77123,-3.43125 13.61386,-2.62049 9.14123,0.75298 31.33394,-0.96806 44.51658,-3.45224 25.38719,-4.78404 58.27609,-15.88437 91.2195,-30.78747 7.12343,-3.22253 13.63383,-5.85915 14.46755,-5.85915 6.49329,0 -8.6013,10.96366 -29.39863,21.3531 -18.19783,9.09085 -46.65392,18.82049 -62.30668,21.30376 -10.53429,1.67123 -13.3964,3.43938 -13.42919,8.29622 -0.0253,3.75017 12.019,15.08273 20.25484,19.05791 13.95059,6.73351 19.65554,7.85567 39.93723,7.85567 21.89939,0 29.24868,-1.50625 44.45798,-9.11173 16.21371,-8.10774 24.14414,-14.45192 35.94462,-28.75493 l 3.52015,-4.26667 -2.01673,5.39027 c -3.30901,8.84418 -10.49103,18.38713 -24.14621,32.08368 -19.77458,19.83449 -32.42118,26.88298 -59.15641,32.97038 -16.99521,3.86968 -23.32637,4.06626 -36.94513,1.14711 z m 456.00001,-73.00954 c -2.05333,-0.40096 -3.23986,-1.04841 -2.63672,-1.43877 0.60313,-0.39037 8.76313,-1.95973 18.13333,-3.48747 9.3702,-1.52775 19.91673,-3.43827 23.43673,-4.24562 3.52,-0.80735 9.27856,-2.05585 12.79679,-2.77443 13.45988,-2.74913 42.83198,-15.98887 55.48476,-25.01026 12.40243,-8.84291 20.01528,-19.43168 19.90831,-27.69063 -0.0373,-2.8784 -1.50679,-7.17705 -4.37394,-12.7949 -2.37478,-4.6531 -4.08779,-8.69016 -3.8067,-8.97126 0.2811,-0.2811 4.23401,1.19742 8.78426,3.2856 4.55026,2.08817 9.53162,4.07893 11.06971,4.42391 4.47196,1.00302 13.16308,7.51049 13.55231,10.14728 0.22174,1.50211 -1.31149,4.57567 -4.20803,8.43556 -6.36393,8.48047 -27.92696,30.38015 -35.60747,36.16337 -12.56494,9.46106 -30.92482,17.07664 -52.26667,21.67989 -8.60985,1.85707 -15.08881,2.36878 -33.6,2.65373 -12.61333,0.19415 -24.61333,0.025 -26.66667,-0.376 z m -670.40001,-2.24574 c -11.79218,-1.29009 -36.050011,-8.68423 -47.461905,-14.46707 -7.928293,-4.01757 -22.286452,-15.145 -31.528832,-24.43454 -9.41999,-9.46805 -22.81645,-26.81384 -22.8529,-29.59001 -0.0573,-4.36249 31.33696,-19.46892 33.42824,-16.08518 0.32324,0.52302 -0.61667,2.72333 -2.08868,4.88958 -13.74244,20.22383 -2.45047,36.4795 39.376236,56.68514 12.488061,6.03274 19.246111,8.5713 29.527841,11.09173 14.54719,3.56605 31.74464,6.65716 48.82009,8.77502 8.27763,1.02667 10.49251,1.61663 9.06666,2.41501 -2.31145,1.29426 -45.93745,1.85257 -56.28675,0.72032 z m 347.73334,-12.33504 c -17.44255,-7.1267 -26.17294,-27.19755 -19.58612,-45.02777 4.83314,-13.0831 18.78512,-22.70668 32.91945,-22.70668 19.12206,0 35.2,16.07794 35.2,35.2 0,9.59058 -3.37601,17.48157 -10.54722,24.65278 -10.4894,10.48939 -24.49253,13.39488 -37.98611,7.88167 z m 234.13334,-8.50892 c 2.64,-0.78423 10.94508,-3.14644 18.45572,-5.24934 19.86428,-5.56181 38.39379,-13.52321 51.17477,-21.98777 19.56178,-12.95532 41.127,-34.21732 54.97531,-54.20229 11.71927,-16.91248 32.62242,-63.01865 30.7651,-67.85875 -0.95596,-2.49121 -6.08041,-2.0199 -10.47007,0.96295 -11.9977,8.15265 -27.82562,15.47823 -49.90041,23.09524 -26.60879,9.18149 -44.73605,12.86124 -107.19089,21.75918 -73.72939,10.50423 -117.39973,22.08267 -134.37354,35.62682 -2.29021,1.82746 -4.38257,3.10408 -4.6497,2.83695 -1.84181,-1.84181 25.92256,-28.97653 37.91829,-37.05836 4.52581,-3.04917 12.78875,-8.61817 18.36208,-12.37556 18.37967,-12.39109 37.64396,-20.7418 71.51688,-31.00123 19.72701,-5.97493 42.46943,-10.14487 79.41646,-14.56143 70.52316,-8.43018 92.20231,-12.74208 110.70063,-22.01796 9.83146,-4.92992 19.87945,-11.3575 28.25152,-18.07212 3.09035,-2.47855 5.85523,-4.27004 6.14417,-3.9811 1.05583,1.05584 -5.10186,33.60122 -8.70027,45.98363 -9.15191,31.49245 -20.94317,58.32764 -35.11939,79.92654 -7.30242,11.126 -12.04884,16.88674 -22.21495,26.96238 -16.43684,16.29054 -27.82168,24.81285 -42.69801,31.96233 -32.34913,15.54678 -55.31472,20.99591 -87.45194,20.75006 l -9.71176,-0.0743 z m -475.20001,-1.57378 c -25.67913,-4.08016 -58.4408,-16.53579 -76.65343,-29.14281 -16.88634,-11.68895 -34.24296,-29.21639 -45.98788,-46.44046 -12.822941,-18.805 -28.214771,-52.14726 -35.305695,-76.48029 -4.824357,-16.55512 -10.754282,-50.09555 -9.043762,-51.1527 0.413047,-0.25527 3.594941,1.83349 7.070874,4.64172 18.087102,14.61265 45.955723,26.74133 66.305203,28.85663 5.72807,0.59542 18.09469,2.29218 27.48136,3.77058 9.38666,1.47839 32.37405,4.61943 51.08309,6.98009 18.70904,2.36067 37.66904,5.03139 42.13334,5.93495 14.86335,3.00828 37.88874,9.22666 45.62792,12.32257 4.2044,1.68189 8.21034,3.05797 8.90208,3.05797 0.69176,0 2.5318,0.67493 4.08898,1.49986 1.55719,0.82492 5.07115,2.2893 7.8088,3.25419 17.07848,6.01928 49.27892,26.51486 68.58105,43.65184 7.01724,6.23009 13.0617,11.32744 13.43213,11.32744 1.27946,0 11.88603,13.26331 10.87585,13.60003 -0.55727,0.18575 -3.60522,-1.42734 -6.77324,-3.58467 -20.74931,-14.1297 -65.27641,-26.78586 -117.76001,-33.47153 -23.95148,-3.05107 -80.8282,-12.2987 -92.26666,-15.0017 -29.81883,-7.04643 -60.6494,-18.84744 -78.88429,-30.19448 -4.37302,-2.7212 -8.86894,-4.94764 -9.99093,-4.94764 -1.84151,0 -1.99415,0.6486 -1.56894,6.66666 0.37967,5.37362 1.872,9.73505 7.69412,22.4866 11.84123,25.93455 26.03684,48.89894 38.64594,62.51793 9.49415,10.25455 27.69065,25.81361 38.15512,32.62481 9.6771,6.29872 29.45151,16.50399 31.97922,16.50399 0.90991,0 4.82325,1.19276 8.6963,2.65057 3.87305,1.4578 12.40401,3.63667 18.95769,4.84192 17.91776,3.29514 18.08105,3.34984 12.98243,4.34869 -7.03921,1.37904 -23.78371,0.86066 -36.26666,-1.12276 z m 240,-77.38396 c -17.44255,-7.1267 -26.17294,-27.19755 -19.58611,-45.02778 4.83314,-13.08309 18.78512,-22.70667 32.91944,-22.70667 14.13433,0 28.08631,9.62358 32.91945,22.70667 4.95433,13.41113 1.94473,26.93472 -8.26667,37.1461 -10.4894,10.4894 -24.49253,13.39488 -37.98611,7.88168 z m 98.13682,-43.82615 c 3.56979,-8.10384 13.79321,-40.24008 15.57815,-48.96827 5.52224,-27.00317 3.05343,-60.8596 -6.58965,-90.36859 -4.14643,-12.68853 -14.47903,-35.02882 -20.52099,-44.36872 -2.72787,-4.21685 -5.92192,-9.553 -7.0979,-11.8581 -2.45558,-4.81335 -17.13545,-23.54025 -24.94408,-31.82081 l -5.28983,-5.60953 3.94173,-8.39968 c 5.21998,-11.12358 6.09542,-17.15048 4.14784,-28.5556 -0.85113,-4.98435 -1.31309,-9.29689 -1.02655,-9.58342 0.78235,-0.78235 20.51517,18.9067 31.56404,31.49405 11.54455,13.15205 19.55349,23.72051 25.15719,33.19704 2.25492,3.81333 5.2561,8.77816 6.66927,11.03296 1.41318,2.25478 4.48765,8.73478 6.83215,14.4 12.59372,30.43119 14.75873,40.38902 14.76885,67.92835 0.0128,34.87648 -4.13165,51.11116 -22.86652,89.57202 -7.24968,14.88286 -17.28093,31.51359 -20.03487,33.21562 -0.82034,0.50699 -0.90974,0.10229 -0.28883,-1.30732 z M 390.03406,415.0353 c -1.83959,-2.87437 -7.63746,-13.86612 -12.88417,-24.42612 -7.61239,-15.32135 -10.41358,-22.32448 -13.86639,-34.66667 -14.0259,-50.13604 -13.13815,-80.33988 3.71519,-126.4 2.15036,-5.87697 13.12791,-24.68547 21.20052,-36.32418 7.97504,-11.49803 32.64912,-38.07009 39.11292,-42.12152 2.5151,-1.57645 5.53178,-3.94021 6.70373,-5.25282 1.17195,-1.3126 3.45195,-3.06973 5.06667,-3.90474 3.71028,-1.91866 3.79139,-0.95085 0.64554,7.70295 -3.49935,9.62622 -3.27138,21.35155 0.5891,30.30031 1.64507,3.81334 3.237,8.26485 3.53761,9.89225 0.66908,3.6221 -1.32148,6.70812 -14.60408,22.64109 -11.8422,14.20514 -19.57221,26.40777 -28.37947,44.8 -7.97618,16.65667 -13.31406,30.77019 -16.99331,44.93084 -5.02682,19.34716 -4.78102,61.13471 0.48865,83.07388 1.12669,4.69074 3.77233,14.00942 5.8792,20.70818 2.10687,6.69876 3.67368,12.65052 3.48182,13.22612 -0.19187,0.5756 -1.85396,-1.30522 -3.69353,-4.17957 z m 75.98432,-32.95834 c -17.44255,-7.1267 -26.17294,-27.19754 -19.58611,-45.02777 4.83314,-13.0831 18.78512,-22.70668 32.91944,-22.70668 14.13433,0 28.08631,9.62358 32.91945,22.70668 4.95433,13.41112 1.94473,26.93472 -8.26667,37.1461 -10.4894,10.48939 -24.49253,13.39488 -37.98611,7.88167 z m 159.76764,-3.20112 c 9.71873,-13.94629 22.96095,-36.29305 27.49566,-46.4 6.69974,-14.93233 15.59279,-38.84737 18.11943,-48.72642 4.48997,-17.55563 4.66342,-51.12549 0.35342,-68.40214 -3.80288,-15.24384 -14.43541,-38.85301 -24.3514,-54.07143 -10.19304,-15.64365 -28.14654,-36.06838 -34.66928,-39.44143 -3.03149,-1.56765 -3.91865,-1.57698 -9.67676,-0.10187 -7.76486,1.98927 -15.75326,5.94646 -20.60681,10.20794 -4.03202,3.54016 -7.09856,4.15708 -7.09856,1.42805 0,-1.92131 9.11029,-17.92569 16.67151,-29.28744 2.58462,-3.88376 9.22934,-11.443759 14.76602,-16.800009 13.32495,-12.890657 13.6548,-12.894827 24.53119,-0.31016 4.48174,5.18566 9.23977,11.06566 10.57339,13.066669 7.32104,10.98477 16.65789,25.55381 16.65789,25.9927 0,0.27803 2.6225,5.20202 5.82777,10.9422 10.45174,18.71757 19.68523,45.62824 24.25947,70.70335 3.11612,17.08196 3.10794,44.55444 -0.0185,61.86666 -2.65147,14.68249 -8.20141,32.82459 -14.2307,46.51842 -7.0107,15.92285 -24.41623,39.70003 -42.72606,58.36682 -8.03756,8.19425 -8.99131,8.91602 -5.87776,4.44809 z m -298.00027,-6.19285 c -15.76411,-15.03233 -27.8998,-32.18423 -40.34962,-57.02788 -14.56482,-29.06417 -17.69755,-43.39704 -17.6559,-80.77926 0.0271,-24.28454 0.18265,-26.25342 3.02785,-38.31613 1.64963,-6.99388 4.44992,-16.83388 6.22287,-21.86667 4.7372,-13.44733 16.22622,-39.0858 21.97515,-49.03894 6.90652,-11.9573 25.64325,-38.893139 31.90235,-45.862686 l 5.16486,-5.75109 3.55528,1.83851 c 5.53801,2.86382 20.70944,18.028557 26.53219,26.520476 10.35711,15.10488 18.18201,29.95384 16.37364,31.07148 -0.51236,0.31665 -4.60073,-1.84342 -9.08524,-4.80017 -4.48451,-2.95674 -10.18101,-6.0982 -12.6589,-6.98102 -5.21934,-1.85953 -14.62145,-2.13551 -17.64397,-0.51791 -5.2637,2.81705 -20.44986,21.02528 -31.66868,37.97082 -13.8698,20.9497 -14.4378,21.99033 -19.23281,35.23681 -6.41028,17.70865 -7.42042,24.81562 -7.4236,52.22985 -0.003,27.43664 1.01301,34.8134 7.60777,55.22584 6.08392,18.83129 28.72301,60.9912 39.14543,72.89905 7.19995,8.22611 3.68141,6.9794 -5.78867,-2.05108 z m 369.13685,-3.37205 c 0.85477,-1.02996 7.09102,-6.09737 13.85831,-11.26092 24.29323,-18.53617 35.8886,-30.12831 54.18545,-54.1704 12.08865,-15.8845 24.29045,-42.3189 31.11279,-67.40377 2.49033,-9.15665 5.40591,-32.29742 5.40591,-42.90648 0,-6.76528 -0.15536,-7.2252 -2.65224,-7.85188 -5.42104,-1.3606 -23.80152,3.17779 -43.0548,10.63083 -10.43782,4.04052 -12.95963,4.58005 -12.95963,2.77268 0,-1.41482 11.71938,-8.96416 24.55555,-15.81812 12.16504,-6.4956 43.025,-18.18662 50.27132,-19.04483 l 5.17313,-0.61269 v 16.98043 c 0,37.38148 -7.66306,70.99518 -23.55358,103.31672 -11.87777,24.15955 -35.22402,49.20245 -61.51217,65.98249 -7.87192,5.02472 -34.89473,18.92114 -39.72589,20.42892 -2.44403,0.76278 -2.53303,0.67871 -1.10415,-1.04298 z m -433.28143,-0.10123 c -0.32969,-0.32969 -4.12969,-1.92266 -8.44444,-3.53993 -10.71804,-4.01736 -34.2693,-17.74103 -47.93094,-27.93004 -15.54946,-11.59699 -31.44558,-29.87406 -42.54182,-48.91384 -14.75544,-25.31849 -22.70145,-52.36761 -26.76922,-91.12541 -1.46557,-13.96403 -1.86102,-34.30588 -0.68988,-35.48654 0.9604,-0.96818 11.70061,1.60247 25.72332,6.15683 12.33807,4.00721 42.64059,19.08969 49.1338,24.45535 2.7841,2.30066 5.48975,4.18301 6.01253,4.18301 0.52279,0 0.95053,0.42435 0.95053,0.943 0,0.51865 -7.8,-1.59053 -17.33334,-4.68708 -19.30752,-6.27131 -32.85863,-9.35512 -38.91116,-8.85496 l -4.02217,0.33241 -0.31969,8 c -0.80238,20.07855 9.51863,60.9633 21.50568,85.19069 12.52501,25.31467 42.26375,59.47613 66.87916,76.82536 7.05242,4.97064 19.08157,15.05062 17.96096,15.05062 -0.33214,0 -0.87364,-0.26974 -1.20332,-0.59943 z m 489.84389,-7.28428 c 0,-0.2294 8.497,-6.34939 18.88223,-13.6 10.38521,-7.2506 23.70521,-17.54792 29.6,-22.88294 17.82158,-16.12924 42.66365,-42.41012 50.54433,-53.47175 9.54528,-13.39816 11.78481,-15.77709 13.36451,-14.19639 0.83129,0.83182 1.20893,8.93965 1.20893,25.9556 v 24.74589 l -4.13795,9.93165 c -8.83447,21.20391 -27.35591,33.99463 -56.61349,39.09673 -16.94003,2.95409 -52.84856,5.95813 -52.84856,4.42121 z m -570.13335,-1.78634 c -23.7128,-2.49269 -47.37159,-7.81174 -58.13333,-13.06973 -14.37913,-7.02539 -25.949161,-21.79922 -30.641941,-39.12685 -2.94513,-10.87459 -2.36488,-52.26666 0.73269,-52.26666 0.49135,0 5.257551,5.47928 10.591561,12.17619 12.75749,16.01719 26.86611,31.52232 41.82427,45.96415 13.58871,13.11965 23.99341,21.50313 43.62675,35.15185 7.33334,5.09799 13.33334,9.83278 13.33334,10.52177 0,1.57682 -9.70101,1.87207 -21.33334,0.64928 z m 284.8,-71.92879 c -12.8943,-5.26837 -21.86666,-18.61795 -21.86666,-32.53445 0,-19.12206 16.07794,-35.2 35.2,-35.2 19.12206,0 35.2,16.07794 35.2,35.2 0,9.59058 -3.37601,17.48156 -10.54722,24.65277 -10.4894,10.4894 -24.49254,13.39488 -37.98612,7.88168 z m 0,-93.86667 c -17.44255,-7.12669 -26.17294,-27.19754 -19.58611,-45.02777 3.12378,-8.45591 11.97021,-17.30235 20.42612,-20.42612 23.00533,-8.4986 47.69333,8.54184 47.69333,32.91944 0,9.59058 -3.37601,17.48157 -10.54722,24.65278 -10.4894,10.4894 -24.49254,13.39488 -37.98612,7.88167 z m 0,-92.8 C 450.70916,94.416931 441.97877,74.346094 448.5656,56.515864 c 3.12378,-8.45592 11.97021,-17.30236 20.42612,-20.42613 23.00533,-8.4986 47.69333,8.54184 47.69333,32.91945 0,9.59058 -3.37601,17.481557 -10.54722,24.652777 -10.4894,10.489409 -24.49254,13.394889 -37.98612,7.881669 z"
     id="path71"
     inkscape:connector-curvature="0" />
</svg>
